<svg width="10" height="16" viewBox="0 0 10 16" fill="none" xmlns="http://www.w3.org/2000/svg">
<g id="Group 32">
<path id="Combined Shape" fill-rule="evenodd" clip-rule="evenodd" d="M1.5 3.5C2.32843 3.5 3 2.82843 3 2C3 1.17157 2.32843 0.5 1.5 0.5C0.671573 0.5 0 1.17157 0 2C0 2.82843 0.671573 3.5 1.5 3.5ZM1.5 9.5C2.32843 9.5 3 8.82843 3 8C3 7.17157 2.32843 6.5 1.5 6.5C0.671573 6.5 0 7.17157 0 8C0 8.82843 0.671573 9.5 1.5 9.5ZM3 14C3 14.8284 2.32843 15.5 1.5 15.5C0.671573 15.5 0 14.8284 0 14C0 13.1716 0.671573 12.5 1.5 12.5C2.32843 12.5 3 13.1716 3 14Z" fill="#BDBDBD"/>
<path id="Combined Shape_2" fill-rule="evenodd" clip-rule="evenodd" d="M8.5 3.5C9.32843 3.5 10 2.82843 10 2C10 1.17157 9.32843 0.5 8.5 0.5C7.67157 0.5 7 1.17157 7 2C7 2.82843 7.67157 3.5 8.5 3.5ZM8.5 9.5C9.32843 9.5 10 8.82843 10 8C10 7.17157 9.32843 6.5 8.5 6.5C7.67157 6.5 7 7.17157 7 8C7 8.82843 7.67157 9.5 8.5 9.5ZM10 14C10 14.8284 9.32843 15.5 8.5 15.5C7.67157 15.5 7 14.8284 7 14C7 13.1716 7.67157 12.5 8.5 12.5C9.32843 12.5 10 13.1716 10 14Z" fill="#BDBDBD"/>
</g>
</svg>
