<svg width="29" height="29" viewBox="0 0 29 29" fill="none" xmlns="http://www.w3.org/2000/svg">
<g id="icon / folder">
<path id="Vector" d="M25 22C25 22.5304 24.7893 23.0391 24.4142 23.4142C24.0391 23.7893 23.5304 24 23 24H7C6.46957 24 5.96086 23.7893 5.58579 23.4142C5.21071 23.0391 5 22.5304 5 22V8C5 7.46957 5.21071 6.96086 5.58579 6.58579C5.96086 6.21071 6.46957 6 7 6H12L14 9H23C23.5304 9 24.0391 9.21071 24.4142 9.58579C24.7893 9.96086 25 10.4696 25 11V22Z" stroke="#4B2E4C" stroke-width="2" stroke-linecap="round" stroke-linejoin="round"/>
<path id="Vector 3" d="M14 9.5H5" stroke="#4B2E4C"/>
</g>
</svg>
