<svg width="24" height="24" viewBox="0 0 24 24" fill="none" xmlns="http://www.w3.org/2000/svg">
<rect x="2" y="2" width="20" height="20" rx="2" fill="white" stroke="#4B2E4C" stroke-width="1.5" stroke-linecap="round" stroke-linejoin="round"/>
<path fill-rule="evenodd" clip-rule="evenodd" d="M8 10C9.10457 10 10 9.10457 10 8C10 6.89543 9.10457 6 8 6C6.89543 6 6 6.89543 6 8C6 9.10457 6.89543 10 8 10Z" fill="#C897E7" stroke="#4B2E4C" stroke-width="1.5" stroke-linecap="round" stroke-linejoin="round"/>
<path fill-rule="evenodd" clip-rule="evenodd" d="M22 14.9091L18.7469 11.4917C17.4926 10.1741 15.3639 10.267 14.2292 11.6888L6 22" fill="#C897E7"/>
<path d="M22 14.9091L18.7469 11.4917C17.4926 10.1741 15.3639 10.267 14.2292 11.6888L6 22L20 22C21.1046 22 22 21.1046 22 20V14.9091Z" fill="#C897E7"/>
<path d="M22 14.9091L18.7469 11.4917C17.4926 10.1741 15.3639 10.267 14.2292 11.6888L6 22L20 22C21.1046 22 22 21.1046 22 20V14.9091Z" stroke="#4B2E4C" stroke-width="1.5" stroke-linecap="round" stroke-linejoin="round"/>
</svg>
