<svg width="24" height="24" viewBox="0 0 24 24" fill="none" xmlns="http://www.w3.org/2000/svg">
<g id="icon / info">
<path id="i" d="M9.75 14.855H11.4346V10.5483H9.83057V9.20068H13.1118V14.855H14.6426V16.2026H9.75V14.855ZM12.167 7.98486C11.9766 7.98486 11.8008 7.94092 11.6396 7.85303C11.4785 7.76025 11.3516 7.63818 11.2588 7.48682C11.166 7.33545 11.1196 7.17188 11.1196 6.99609C11.1196 6.70801 11.2173 6.47119 11.4126 6.28564C11.6079 6.09521 11.8594 6 12.167 6C12.3477 6 12.5186 6.04639 12.6797 6.13916C12.8457 6.22705 12.9775 6.34912 13.0752 6.50537C13.1729 6.65674 13.2217 6.82031 13.2217 6.99609C13.2217 7.17188 13.1729 7.33545 13.0752 7.48682C12.9775 7.63818 12.8457 7.76025 12.6797 7.85303C12.5186 7.94092 12.3477 7.98486 12.167 7.98486Z" fill="#6A536B"/>
<circle id="Ellipse 2" cx="12" cy="12" r="9.25" stroke="#6A536B" stroke-width="1.5"/>
</g>
</svg>
